<svg version="1.2" xmlns="http://www.w3.org/2000/svg" viewBox="0 0 256 64" width="256" height="64">
	<title>LOGO_theTinyDrive-SVG</title>
	<style>
		tspan { white-space:pre } 
		.s0 { fill: #ffffff } 
		.s1 { fill: #960000 } 
	</style>
	<path id="theTinyLab" fill-rule="evenodd" class="s0" d="m21.9 24.4h-4.6l0.5-2.6h4.6l1-5.4 3.2-0.8-1.1 6.2h6.4l-0.5 2.6h-6.4l-2.4 13c-0.4 2.3 0.4 3.2 2.7 3.2 1.2 0 2.1-0.1 3.2-0.5l-0.5 2.7c-1.2 0.4-2.6 0.6-3.8 0.6-3.7 0-5.4-1.8-4.8-5.1zm14.8-11.2l3.3-0.7-2.1 11.7c2-2 4.5-2.9 7.2-2.9 4.9 0 7.6 3.3 6.7 8.2l-2.4 13.4h-3.1l2.3-12.8c0.7-3.8-1.2-6.1-4.8-6.1-2.6 0-4.8 1.2-6.5 3.3l-2.8 15.6h-3.2zm27.8 30.1c-6.1 0-10.1-4.8-8.9-11.1 1.1-6.1 6.6-10.9 12.4-10.9 5.7 0 9.2 4.8 8.1 10.9l-0.2 1h-17.4c-0.3 4.2 2.4 7.3 6.6 7.3 2.2 0 4.6-0.7 6.2-1.9l1.6 2c-2.7 1.8-5.3 2.7-8.4 2.7zm-5.5-12.6h14.2c0.2-3.8-2.2-6.6-5.8-6.6-3.6 0-7.1 2.7-8.4 6.6zm112.3-17.5h4.5l-4.7 25.7h17.1l-0.7 4h-21.6zm20.2 23.5c0.7-4.1 4.5-6.6 9.9-6.6 2.1 0 4 0.4 5.7 1.2l0.4-2.3c0.6-3.1-1-4.6-4.4-4.6-2 0-4.1 0.6-7 1.8l-1-3.1c3.5-1.6 6.4-2.2 9.2-2.2 5.6 0 8.3 2.7 7.4 7.7l-2.6 14.2h-4.1l0.3-1.8c-2.2 1.5-4.5 2.2-7.1 2.2-4.7 0-7.4-2.6-6.7-6.5zm8.3 3.4q3.4 0 6.1-2l0.6-3.8c-1.5-0.9-3.1-1.3-5.3-1.3-3.1 0-5.2 1.4-5.6 3.6-0.4 2.1 1.3 3.5 4.2 3.5zm24.9 3.1c-2.4 0-4.6-0.8-6.2-2.2l-0.3 1.8h-4.2l5.4-29.6 4.4-0.9-2 11c2.1-1.5 4.5-2.4 7-2.4 6.1 0 10 4.9 8.9 11.1-1.2 6.3-6.8 11.2-13 11.2zm-3.6-16l-1.8 9.8c1.1 1.5 3.2 2.5 5.6 2.5 4.1 0 7.8-3.2 8.6-7.4 0.8-4.3-1.8-7.5-5.9-7.5-2.5 0-4.8 1-6.5 2.6z"/>
	<path id="theTinyLab" class="s1" d="m81 18.8h10l-4.4 24.2h6.2l4.4-24.2h9.9l1-5.5h-26.1zm32.1-0.4c1.9 0 3.6-1.5 4-3.3 0.3-1.9-0.9-3.3-2.8-3.3-1.8 0-3.5 1.4-3.9 3.3-0.3 1.8 0.9 3.3 2.7 3.3zm2.5 2.6h-5.8l-4 22.1h5.8zm0.5 22.1h5.8l2.8-15.3c1.3-1.5 3-2.2 4.9-2.2 2.8 0 4.3 1.8 3.8 4.6l-2.4 12.9h5.8l2.5-13.8c1-5.1-2-8.7-7.1-8.7-2.4 0-4.7 0.7-6.6 2.1l0.3-1.7h-5.8zm30.5 1q-1.8 3-4.9 3c-0.9 0-1.4 0-2-0.2l-0.9 5c0.5 0.2 1.5 0.3 2.5 0.3 4.9 0 7.9-2 11.2-7.4l14.5-23.8h-6.3l-9 15-2.8-15h-6.4l4.6 22.3z"/>
</svg>